<svg xmlns="http://www.w3.org/2000/svg" width="1024" height="1024" viewBox="0 0 1024 1024">
  <defs>
    <linearGradient id="bg" x1="120" y1="80" x2="900" y2="940" gradientUnits="userSpaceOnUse">
      <stop stop-color="#262331"/>
      <stop offset="1" stop-color="#0C0D12"/>
    </linearGradient>
    <linearGradient id="glow" x1="318" y1="270" x2="754" y2="780" gradientUnits="userSpaceOnUse">
      <stop stop-color="#C3BCFF"/>
      <stop offset="0.52" stop-color="#8B7CFF"/>
      <stop offset="1" stop-color="#6250E5"/>
    </linearGradient>
    <filter id="shadow" x="-40%" y="-40%" width="180%" height="180%">
      <feGaussianBlur stdDeviation="45"/>
    </filter>
  </defs>
  <rect width="1024" height="1024" fill="#0C0D12"/>
  <rect x="52" y="52" width="920" height="920" rx="224" fill="url(#bg)"/>
  <circle cx="650" cy="386" r="250" fill="#806DF7" opacity=".22" filter="url(#shadow)"/>
  <rect x="258" y="285" width="508" height="466" rx="100" fill="#171720" stroke="#FFFFFF" stroke-opacity=".12" stroke-width="18"/>
  <rect x="306" y="333" width="412" height="370" rx="72" fill="url(#glow)" opacity=".16"/>
  <path d="M512 273c26 119 65 158 184 184-119 26-158 65-184 184-26-119-65-158-184-184 119-26 158-65 184-184Z" fill="url(#glow)"/>
  <circle cx="512" cy="457" r="38" fill="#F7F5FF"/>
  <path d="M321 700c70-94 135-137 197-128 73 11 112 84 187 62v69H321v-3Z" fill="#B7AFFF" opacity=".32"/>
</svg>
